Coordinates
version=1
nRows=4
nColumns=107
inDegrees=yes

Units are S.I. units (second, meters, Newtons, ...)
If the header above contains a line with 'inDegrees', this indicates whether rotational values are in degrees (yes) or radians (no).

endheader
time	sternoclavicular_r2	sternoclavicular_r3	unrotscap_r3	unrotscap_r2	acromioclavicular_r2	acromioclavicular_r3	acromioclavicular_r1	unrothum_r1	unrothum_r3	unrothum_r2	elv_angle	shoulder_elv	shoulder1_r2	shoulder_rot	elbow_flexion	pro_sup	deviation	flexion	proximal_distal_r1	proximal_distal_r3	cmc_flexion	cmc_abduction	mp_flexion	ip_flexion	mcp2_flexion	mcp2_abduction	pm2_flexion	md2_flexion	mcp3_flexion	mcp3_abduction	pm3_flexion	md3_flexion	mcp4_flexion	mcp4_abduction	pm4_flexion	md4_flexion	mcp5_flexion	mcp5_abduction	pm5_flexion	md5_flexion	bicpt_tx	bicpt_ty	bicpt_tz	bicpt2_tx	bicpt2_ty	bicpt2_tz	ptpt_tx	ptpt_ty	ptpt_tz	FCUpt_tx	FCUpt_ty	FCUpt_tz	EDCpt_tx	EDCpt_ty	EDCpt_tz	APLpt_tx	APLpt_ty	APLpt_tz	FPLpt_tx	FPLpt_ty	FPLpt_tz	FPLpt2_tx	FPLpt2_ty	FPLpt2_tz	PEC1pt2_tx	PEC1pt2_ty	PEC1pt2_tz	PEC1pt3_tx	PEC1pt3_ty	PEC1pt3_tz	PEC2pt2_tx	PEC2pt2_ty	PEC2pt2_tz	PEC2pt3_tx	PEC2pt3_ty	PEC2pt3_tz	PEC3pt2_tx	PEC3pt2_ty	PEC3pt2_tz	PEC3pt3_tx	PEC3pt3_ty	PEC3pt3_tz	DELT2pt2a_tx	DELT2pt2a_ty	DELT2pt2a_tz	DELT2pt2_tx	DELT2pt2_ty	DELT2pt2_tz	LAT1pt2_tx	LAT1pt2_ty	LAT1pt2_tz	LAT1pt3_tx	LAT1pt3_ty	LAT1pt3_tz	LAT2pt2_tx	LAT2pt2_ty	LAT2pt2_tz	LAT2pt3_tx	LAT2pt3_ty	LAT2pt3_tz	LAT3pt2_tx	LAT3pt2_ty	LAT3pt2_tz	LAT3pt3_tx	LAT3pt3_ty	LAT3pt3_tz
      0.56666667	     -0.32268403	      0.13667372	     -0.13667372	      0.32268403	     -0.06533695	      0.52803026	      0.23734597	     -0.23734597	     -0.52803026	      0.06533695	     99.74215719	     76.39831144	     -1.74082905	    -23.28490543	     26.33343213	     18.76860915	     -0.07080580	     -0.33498253	     -0.10019673	     -0.16749127	     16.26221946	      6.47886427	     12.97081003	     14.51721606	     10.83522803	     14.13943278	      4.20774673	    -43.32389711	    -16.33311671	      4.45628286	      4.62810258	      8.03983886	    -34.39901306	     -6.01140959	    -10.78749147	     18.06390480	    -51.55656512	    -14.38431179	     -6.88964900	      4.99022584	      0.00077103	     -0.03061821	     -0.00478616	      0.01601912	     -0.01735361	     -0.00942050	      0.00616321	     -0.06579672	     -0.00156191	      0.00571225	     -0.18387273	     -0.00006597	     -0.00225223	      0.00058614	      0.00017669	      0.00024876	      0.00009950	      0.00049752	      0.00031842	      0.00095525	      0.00053733	      0.00002090	     -0.00025963	     -0.00031156	      0.00250417	      0.00878581	      0.00611187	     -0.00819160	      0.01977869	     -0.01876005	      0.00250417	      0.00878581	      0.00611187	      0.00055177	      0.01833561	     -0.00963468	      0.00395669	      0.00488568	      0.01598899	      0.00000000	      0.00780612	      0.00000000	     -0.00717296	     -0.03314841	     -0.00643665	      0.01559966	     -0.00053491	     -0.00452159	     -0.00089131	      0.01494013	     -0.00611187	      0.00246173	      0.02156132	     -0.01782629	     -0.00598454	      0.01294528	     -0.00547522	     -0.01247840	      0.02733364	     -0.03060179	     -0.02342884	      0.01447325	     -0.00734273	     -0.01553434	      0.03157800	     -0.03824163
      0.60000000	     -0.32326159	      0.13691835	     -0.13691835	      0.32326159	     -0.06545390	      0.52897536	      0.23777078	     -0.23777078	     -0.52897536	      0.06545390	     99.48253714	     76.53505419	     -1.73629782	    -22.40690016	     26.54067588	     18.37509681	     -0.05807991	     -0.30799087	     -0.08158336	     -0.15399543	     16.73823510	      6.14087738	     11.95735210	     12.32783078	     11.56233240	     14.11743466	      4.27876914	    -43.70400209	    -15.77676067	      3.81910420	      4.73551389	      9.69085123	    -33.75806558	     -6.48642659	    -10.49640481	     20.63443447	    -51.68981759	    -14.40531982	     -6.59355227	      5.02741932	      0.00077788	     -0.03064197	     -0.00478998	      0.01599911	     -0.01740990	     -0.00945070	      0.00619229	     -0.06577792	     -0.00153021	      0.00567523	     -0.18387852	     -0.00005683	     -0.00220501	      0.00057273	      0.00017495	      0.00023568	      0.00009427	      0.00047136	      0.00030167	      0.00090501	      0.00050907	      0.00001978	     -0.00026281	     -0.00031537	      0.00250865	      0.00880154	      0.00612281	     -0.00820627	      0.01981409	     -0.01879362	      0.00250865	      0.00880154	      0.00612281	      0.00055275	      0.01836843	     -0.00965193	      0.00396185	      0.00489442	      0.01600154	      0.00000000	      0.00783429	      0.00000000	     -0.00718580	     -0.03320774	     -0.00646004	      0.01512642	     -0.00050699	     -0.00417863	     -0.00089291	      0.01496687	     -0.00612281	      0.00246613	      0.02159991	     -0.01785819	     -0.00599525	      0.01296845	     -0.00548502	     -0.01250074	      0.02738256	     -0.03065657	     -0.02347077	      0.01449915	     -0.00735588	     -0.01556214	      0.03163452	     -0.03831008
      0.63333333	     -0.32348080	      0.13701120	     -0.13701120	      0.32348080	     -0.06549828	      0.52933408	      0.23793202	     -0.23793202	     -0.52933408	      0.06549828	     99.57480473	     76.58695486	     -1.73790819	    -22.31600054	     26.28142027	     18.35920835	     -0.05936098	     -0.30506250	     -0.08344518	     -0.15253125	     16.67526050	      6.13048705	     11.91094516	     12.34454186	     11.69131271	     14.09884734	      4.36097154	    -43.66352229	    -15.62761742	      3.78850988	      4.80978190	      9.68511445	    -33.58348949	     -6.51610128	    -10.40379951	     20.63980507	    -51.72286128	    -14.40104953	     -6.60531159	      5.02249018	      0.00076931	     -0.03061225	     -0.00478520	      0.01599827	     -0.01733948	     -0.00945190	      0.00619346	     -0.06577716	     -0.00152893	      0.00567374	     -0.18387875	     -0.00005645	     -0.00220310	      0.00057219	      0.00017487	      0.00023419	      0.00009367	      0.00046837	      0.00029976	      0.00089928	      0.00050584	      0.00001993	     -0.00026240	     -0.00031488	      0.00251035	      0.00880751	      0.00612696	     -0.00821183	      0.01982753	     -0.01880637	      0.00251035	      0.00880751	      0.00612696	      0.00055313	      0.01838088	     -0.00965847	      0.00396381	      0.00489774	      0.01600630	      0.00000000	      0.00784499	      0.00000000	     -0.00719067	     -0.03323026	     -0.00646892	      0.01507684	     -0.00050411	     -0.00414378	     -0.00089352	      0.01497702	     -0.00612696	      0.00246780	      0.02161456	     -0.01787030	     -0.00599932	      0.01297724	     -0.00548874	     -0.01250921	      0.02740113	     -0.03067736	     -0.02348669	      0.01450899	     -0.00736086	     -0.01557269	      0.03165597	     -0.03833606
      0.66666667	     -0.32418969	      0.13731145	     -0.13731145	      0.32418969	     -0.06564182	      0.53049408	      0.23845344	     -0.23845344	     -0.53049408	      0.06564182	     99.31284640	     76.75479040	     -1.73333616	    -21.16488739	     26.45883609	     16.65044548	     -0.04315701	     -0.29050731	     -0.06009436	     -0.14525365	     15.58106109	      7.41466055	     11.36666202	     12.94617139	     14.23202805	     14.06213511	      4.59686495	    -42.11002240	    -13.67301145	      3.75512772	      4.68080190	      9.19190593	    -32.53323952	     -6.48743208	     -9.04696720	     21.03169994	    -51.78426587	    -14.38256302	     -6.29332412	      5.00851086	      0.00077518	     -0.03063259	     -0.00478847	      0.01590716	     -0.01738767	     -0.00958043	      0.00631972	     -0.06569552	     -0.00139128	      0.00551357	     -0.18390339	     -0.00001538	     -0.00199805	      0.00051454	      0.00016631	      0.00022657	      0.00009063	      0.00045313	      0.00029000	      0.00087001	      0.00048938	      0.00002247	     -0.00025467	     -0.00030560	      0.00251585	      0.00882681	      0.00614039	     -0.00822983	      0.01987098	     -0.01884758	      0.00251585	      0.00882681	      0.00614039	      0.00055434	      0.01842117	     -0.00967964	      0.00397013	      0.00490848	      0.01602163	      0.00000000	      0.00787966	      0.00000000	     -0.00720643	     -0.03330308	     -0.00649770	      0.01443938	     -0.00046798	     -0.00371319	     -0.00089547	      0.01500984	     -0.00614039	      0.00247321	      0.02166193	     -0.01790947	     -0.00601246	      0.01300568	     -0.00550076	     -0.01253663	      0.02746118	     -0.03074458	     -0.02353816	      0.01454078	     -0.00737699	     -0.01560682	      0.03172534	     -0.03842007
